<svg version="1.2" xmlns="http://www.w3.org/2000/svg" viewBox="0 0 225 77" width="225" height="77">
	<title>New Project</title>
	<style>
		.s0 { fill: #000000 } 
	</style>
	<path id="Shape 1" fill-rule="evenodd" class="s0" d="m182 54c-2.8 0-5-2.2-5-5 0-2.8 2.2-5 5-5 2.8 0 5 2.2 5 5 0 2.8-2.2 5-5 5z"/>
	<path id="ber" class="s0" aria-label="ber"  d="m5.1 48.5v-0.8-0.7-32.4q0-1.6 0.6-3 0.6-1.4 1.7-2.4 1-1 2.4-1.6 1.4-0.6 3-0.6 1.6 0 3 0.6 1.5 0.6 2.5 1.6 1.1 1 1.7 2.4 0.6 1.4 0.6 3v10.8q3.9-1.5 8.4-1.5 4.9 0 9.2 1.9 4.4 1.8 7.6 5.1 3.2 3.2 5.1 7.6 1.9 4.3 1.9 9.2 0 4.9-1.9 9.3-1.9 4.3-5.1 7.6-3.2 3.2-7.6 5.1-4.3 1.8-9.2 1.8-4.9 0-9.3-1.8-0.7-0.4-1.5-0.7-1 0.9-2.4 1.5-1.4 0.5-3 0.5-1.6 0-3-0.5-1.4-0.7-2.4-1.7-1.1-1-1.7-2.4-0.6-1.4-0.6-3zm15.5-0.8q0 1.8 0.7 3.3 0.7 1.5 1.8 2.6 1.2 1.1 2.7 1.8 1.5 0.6 3.2 0.6 1.7 0 3.2-0.6 1.5-0.7 2.7-1.8 1.1-1.1 1.8-2.6 0.6-1.5 0.6-3.3 0-1.7-0.6-3.2-0.7-1.5-1.8-2.6-1.2-1.2-2.7-1.8-1.5-0.6-3.2-0.6-1.7 0-3.2 0.6-1.5 0.6-2.7 1.8-1.1 1.1-1.8 2.6-0.7 1.5-0.7 3.2zm77.2 5h-24.2q1.6 2.1 3.3 3.2 1.7 1.1 4.2 1.1 1.2 0 1.9-0.2 0.8-0.1 1.4-0.3 0.5-0.2 0.9-0.4 0.4-0.2 0.8-0.5 1.9-1.4 3.7-1.6 1.7-0.2 3.3 0.4 1.1 0.4 1.9 1.2 0.9 0.8 1.5 1.8 0.6 1.1 0.9 2.4 0.2 1.4 0.1 2.8-0.2 1.4-0.8 2.8-0.7 1.3-1.9 2.3-0.9 0.7-2.1 1.4-1.2 0.6-2.8 1.2-1.7 0.5-3.8 0.9-2.2 0.3-5 0.3-5 0-9.3-1.8-4.4-1.9-7.7-5.1-3.2-3.3-5.1-7.6-1.9-4.3-1.9-9.3 0-4.9 1.9-9.3 1.9-4.3 5.1-7.5 3.3-3.3 7.7-5.1 4.3-1.9 9.3-1.9 4.8 0 9.1 1.8 4.3 1.8 7.4 5 3.2 3.2 5.1 7.5 1.8 4.3 1.9 9.2 0 1.4-0.5 2.5-0.5 1-1.4 1.6-0.9 0.6-2.2 1-1.2 0.2-2.7 0.2zm-24.4-9.2h16.3q-1.3-2.4-3.4-3.8-2-1.3-4.9-1.3-2.9 0-4.8 1.4-1.9 1.5-3.2 3.7zm54.4 5.5v14.3q0 1.7-0.6 3-0.6 1.4-1.6 2.4-1 1.1-2.4 1.7-1.4 0.6-3 0.6-1.6 0-3.1-0.6-1.4-0.6-2.4-1.7-1.1-1-1.7-2.4-0.6-1.3-0.6-3v-31.8q0-1.6 0.6-3 0.6-1.4 1.7-2.4 1.1-1.1 2.5-1.7 1.5-0.6 3.1-0.6 1.8 0 3.3 0.8 1.5 0.7 2.5 2 2.5-1.2 5.2-1.9 2.7-0.7 5.6-0.8 0.1 0 0.2 0 0.2 0 0.3 0h0.2q3.7 0.1 5.8 2.2 2 2.1 2 5.4 0 1.7-0.6 3.1-0.6 1.4-1.7 2.4-1.1 1-2.6 1.6-1.4 0.6-3.1 0.6h-0.2q-2 0.1-3.7 0.9-1.7 0.8-3 2.1-1.2 1.3-2 3.1-0.7 1.7-0.7 3.7z"/>
	<path id="b" class="s0" aria-label="b"  d="m175.5 24.1h0.7 0.7 32.5q1.6 0 2.9 0.6 1.4 0.6 2.4 1.7 1.1 1 1.7 2.4 0.6 1.4 0.6 3 0 1.6-0.6 3-0.6 1.5-1.7 2.5-1 1.1-2.4 1.7-1.3 0.6-2.9 0.6h-10.9q1.6 3.9 1.6 8.4 0 4.9-1.9 9.2-1.9 4.4-5.1 7.6-3.3 3.2-7.6 5.1-4.4 1.9-9.3 1.9-4.9 0-9.2-1.9-4.4-1.9-7.6-5.1-3.2-3.2-5.1-7.6-1.9-4.3-1.9-9.2 0-4.9 1.9-9.3 0.3-0.7 0.7-1.5-0.9-1-1.5-2.4-0.5-1.4-0.5-3 0-1.6 0.5-3 0.6-1.4 1.6-2.4 1.1-1.1 2.5-1.7 1.4-0.6 3-0.6zm0.7 15.5q-1.7 0-3.2 0.7-1.5 0.7-2.7 1.8-1.1 1.2-1.7 2.7-0.7 1.5-0.7 3.2 0 1.7 0.7 3.2 0.6 1.5 1.7 2.7 1.2 1.1 2.7 1.8 1.5 0.6 3.2 0.6 1.8 0 3.3-0.6 1.5-0.7 2.6-1.8 1.1-1.2 1.8-2.7 0.6-1.5 0.6-3.2 0-1.7-0.6-3.2-0.7-1.5-1.8-2.7-1.1-1.1-2.6-1.8-1.5-0.7-3.3-0.7z"/>
</svg>